<svg width="24" height="24" viewBox="0 0 24 24" fill="none" xmlns="http://www.w3.org/2000/svg">
<path d="M15.5 21.565V17.065C15.5 16.1367 15.1313 15.2465 14.4749 14.5901C13.8185 13.9337 12.9283 13.565 12 13.565C11.0717 13.565 10.1815 13.9337 9.52513 14.5901C8.86875 15.2465 8.5 16.1367 8.5 17.065V21.565H4C3.60218 21.565 3.22064 21.407 2.93934 21.1257C2.65804 20.8443 2.5 20.4628 2.5 20.065V9.19699C2.5 8.93796 2.56707 8.68334 2.69469 8.45793C2.82232 8.23253 3.00614 8.04401 3.22825 7.91074L11.2282 3.11074L10.9719 2.68343L11.2283 3.11074C11.4614 2.97086 11.7281 2.89697 12 2.89697C12.2719 2.89697 12.5386 2.97086 12.7718 3.11074L12.9896 2.74772L12.7718 3.11074L20.7718 7.91074C20.9939 8.04401 21.1777 8.23253 21.3053 8.45793C21.4329 8.68334 21.5 8.93796 21.5 9.19699V20.065C21.5 20.4628 21.342 20.8443 21.0607 21.1257C20.7794 21.407 20.3978 21.565 20 21.565H15.5Z" stroke="#AAAAAA"/>
</svg>
